<svg width="24" height="18" viewBox="0 0 24 18" fill="none" xmlns="http://www.w3.org/2000/svg">
<path d="M19.9671 1.52508C22.566 5.4445 23.8495 9.8655 23.3697 14.9551C23.3677 14.9766 23.3568 14.9964 23.3395 15.0094C21.3714 16.4917 19.4646 17.3913 17.5845 17.9879C17.5698 17.9925 17.5542 17.9922 17.5397 17.9872C17.5252 17.9821 17.5126 17.9726 17.5036 17.9599C17.0693 17.34 16.6746 16.6864 16.3289 16.0001C16.309 15.9597 16.3271 15.911 16.368 15.8951C16.9948 15.6529 17.5908 15.3625 18.1641 15.0188C18.2092 14.9917 18.2121 14.9253 18.1704 14.8934C18.0487 14.8008 17.9282 14.7034 17.8129 14.606C17.7913 14.588 17.7622 14.5845 17.7378 14.5966C14.0158 16.3595 9.93865 16.3595 6.1727 14.5966C6.14825 14.5854 6.11919 14.5892 6.0982 14.6069C5.98313 14.7043 5.86232 14.8008 5.74179 14.8934C5.70008 14.9253 5.70354 14.9917 5.74898 15.0188C6.32228 15.3561 6.91829 15.6529 7.54423 15.8963C7.58479 15.9122 7.60406 15.9597 7.58392 16.0001C7.24564 16.6873 6.85098 17.3408 6.40857 17.9607C6.3893 17.9858 6.35766 17.9973 6.32774 17.9879C4.45656 17.3913 2.54971 16.4917 0.581587 15.0094C0.56519 14.9964 0.553397 14.9757 0.551671 14.9542C0.150682 10.5518 0.967904 6.0942 3.95115 1.52419C3.95834 1.51209 3.96928 1.50265 3.98193 1.49705C5.44983 0.806043 7.02242 0.297675 8.66607 0.0073473C8.69599 0.00262652 8.72591 0.0167888 8.74144 0.0439333C8.94452 0.412744 9.17666 0.885706 9.33372 1.27222C11.0662 1.00078 12.8258 1.00078 14.5946 1.27222C14.7517 0.893968 14.9757 0.412744 15.178 0.0439333C15.1852 0.0304672 15.1963 0.0196789 15.2099 0.0131086C15.2234 0.00653833 15.2386 0.00452193 15.2533 0.0073473C16.8978 0.29856 18.4704 0.806928 19.9372 1.49705C19.9501 1.50265 19.9608 1.51209 19.9671 1.52508ZM10.2145 9.8956C10.2326 8.59414 9.30754 7.51721 8.14628 7.51721C6.99452 7.51721 6.07835 8.5847 6.07835 9.8956C6.07835 11.2062 7.01264 12.2737 8.14628 12.2737C9.29833 12.2737 10.2145 11.2062 10.2145 9.8956ZM17.8609 9.8956C17.879 8.59414 16.9539 7.51721 15.793 7.51721C14.6409 7.51721 13.7247 8.5847 13.7247 9.8956C13.7247 11.2062 14.659 12.2737 15.793 12.2737C16.9539 12.2737 17.8609 11.2062 17.8609 9.8956Z" fill="#FBFCFE"/>
</svg>
