<svg width="32" height="32" viewBox="0 0 32 32" fill="none" xmlns="http://www.w3.org/2000/svg">
<path fill-rule="evenodd" clip-rule="evenodd" d="M11.132 4.25205C9.86646 4.30968 9.00167 4.51035 8.24644 4.80423C8.04728 4.88155 7.85584 4.96561 7.67019 5.05887C7.12661 5.33146 6.63233 5.68274 6.14005 6.17593L6.13955 6.17643C5.54898 6.7663 5.1621 7.35788 4.87003 8.03506C4.83501 8.11604 4.80134 8.19826 4.76883 8.28185C4.47495 9.03851 4.27428 9.90188 4.21665 11.1674C4.15902 12.4357 4.14465 12.8403 4.14465 16.0687C4.14465 19.2972 4.15806 19.7024 4.21665 20.97C4.27428 22.2356 4.47495 23.0998 4.76883 23.8556C4.86718 24.1082 4.97618 24.3483 5.10097 24.5801C5.28486 24.922 5.50329 25.2456 5.77278 25.5632C5.88583 25.6966 6.00785 25.8291 6.14005 25.9615C6.80065 26.6231 7.46429 27.0284 8.24596 27.3327C9.00166 27.6266 9.86598 27.8282 11.1315 27.8849C11.7733 27.914 12.1939 27.9319 12.8709 27.9424C13.5321 27.9529 14.4379 27.9564 16.0333 27.9564C18.622 27.9564 19.3955 27.9478 20.2539 27.9142C20.4659 27.906 20.683 27.8963 20.934 27.8849C22.1997 27.8272 23.0644 27.6266 23.8196 27.3327C24.5996 27.029 25.2611 26.6238 25.9214 25.9656L25.926 25.961C26.0087 25.8784 26.0874 25.7958 26.1624 25.7129C26.6873 25.1328 27.0313 24.5394 27.2967 23.8565C27.3114 23.8188 27.3258 23.7809 27.3399 23.7426C27.6106 23.0133 27.7955 22.1727 27.8494 20.9695C27.8714 20.4838 27.887 20.1248 27.8979 19.6855C27.9155 18.9777 27.9209 18.0606 27.9209 16.0701C27.9209 13.615 27.9131 12.7923 27.8836 11.9811C27.8745 11.7254 27.8632 11.471 27.8494 11.167C27.7918 9.90131 27.5911 9.03661 27.2972 8.28138C26.9929 7.49971 26.5866 6.83711 25.926 6.17546C25.2654 5.51381 24.6017 5.10771 23.821 4.80423C23.0644 4.51035 22.2001 4.30873 20.9354 4.25205C19.6677 4.19413 19.2626 4.18005 16.0347 4.18005C12.8067 4.18005 12.4007 4.19346 11.1325 4.25205H11.132ZM20.9529 9.72177C20.9528 10.0039 21.0364 10.2798 21.1931 10.5144C21.3497 10.7491 21.5724 10.932 21.8331 11.0401C22.0937 11.1482 22.3805 11.1765 22.6573 11.1216C22.934 11.0667 23.1883 10.9309 23.3879 10.7315C23.5875 10.532 23.7234 10.2779 23.7786 10.0012C23.8337 9.7245 23.8056 9.43765 23.6977 9.17694C23.5899 8.91622 23.4071 8.69335 23.1726 8.5365C22.938 8.37965 22.6622 8.29588 22.3801 8.29576H22.3795C22.0013 8.29594 21.6387 8.44622 21.3712 8.71359C21.1037 8.98096 20.9533 9.34357 20.9529 9.72177ZM9.92894 16.0682C9.92894 19.4397 12.6619 22.1726 16.0334 22.1726C19.4048 22.1726 22.1378 19.4397 22.1378 16.0682C22.1378 12.6967 19.4048 9.96381 16.0334 9.96381C12.6619 9.96381 9.92904 12.6965 9.92904 16.0682H9.92894Z" fill="#FBFCFE"/>
</svg>
