<svg width="32" height="32" viewBox="0 0 32 32" fill="none" xmlns="http://www.w3.org/2000/svg">
<path d="M12.2266 25.6426C21.1822 25.6426 26.0797 18.2205 26.0797 11.7843C26.0797 11.5735 26.0754 11.3637 26.0659 11.1547C27.0189 10.4649 27.8413 9.61084 28.4946 8.63252C27.6222 9.02052 26.6834 9.28166 25.6986 9.3994C26.7038 8.79642 27.4755 7.84249 27.8397 6.70541C26.8839 7.2726 25.8383 7.67243 24.7479 7.88769C23.8595 6.94094 22.5946 6.34882 21.1939 6.34882C18.5051 6.34882 16.3248 8.53007 16.3248 11.2188C16.3248 11.6011 16.3675 11.9728 16.4511 12.3294C12.4045 12.1257 8.8162 10.1876 6.41476 7.24048C5.98223 7.98379 5.75473 8.82857 5.75549 9.68857C5.75549 11.3784 6.61503 12.8702 7.92218 13.7429C7.14898 13.7193 6.39276 13.5104 5.71709 13.1337C5.71637 13.1542 5.71637 13.1741 5.71637 13.1959C5.71637 15.5547 7.39464 17.5242 9.62249 17.9705C9.20407 18.0845 8.77231 18.1421 8.33863 18.1418C8.02545 18.1418 7.72022 18.111 7.42358 18.0541C8.04344 19.9893 9.84085 21.3976 11.9719 21.437C10.3054 22.7436 8.20623 23.5219 5.92469 23.5219C5.53658 23.5222 5.14877 23.4997 4.76331 23.4544C6.91813 24.8361 9.47677 25.6422 12.2268 25.6422" fill="#FBFCFE"/>
</svg>
