<svg width="32" height="32" viewBox="0 0 32 32" fill="none" xmlns="http://www.w3.org/2000/svg">
<path d="M16.5666 24.7899L11.3213 24.6941C9.62299 24.6608 7.92045 24.7274 6.25543 24.3816C3.72255 23.865 3.54311 21.3319 3.35534 19.2072C3.09663 16.22 3.19678 13.1787 3.68502 10.2165C3.96064 8.55439 5.04534 7.5626 6.72278 7.45467C12.3854 7.06299 18.0857 7.10941 23.7357 7.29214C24.3324 7.30889 24.9332 7.40045 25.5216 7.50467C28.4261 8.01297 28.4969 10.8835 28.6852 13.2999C28.8729 15.7413 28.7937 18.1952 28.4348 20.6199C28.1469 22.6276 27.596 24.3111 25.2712 24.4737C22.3585 24.6862 19.5126 24.8573 16.5916 24.8028C16.5917 24.7899 16.575 24.7899 16.5666 24.7899ZM13.4829 19.7072C15.6779 18.4489 17.831 17.2116 20.0135 15.9617C17.8144 14.7035 15.6654 13.4662 13.4829 12.2163V19.7072Z" fill="#FBFCFE"/>
</svg>
